<mxfile host="app.diagrams.net" agent="Mozilla/5.0 (Windows NT 10.0; Win64; x64) AppleWebKit/537.36 (KHTML, like Gecko) Chrome/125.0.0.0 Safari/537.36" version="26.1.3">
  <diagram name="第 1 页" id="XMekWPSupbz_kgSdOO-S">
    <mxGraphModel dx="4044" dy="2399" grid="1" gridSize="10" guides="1" tooltips="1" connect="1" arrows="0" fold="1" page="1" pageScale="1" pageWidth="827" pageHeight="1169" math="0" shadow="0">
      <root>
        <mxCell id="0" />
        <mxCell id="1" parent="0" />
        <mxCell id="a6ZegHU4mjPMl57HPd2a-1" value="Vehicles" style="rounded=0;whiteSpace=wrap;html=1;" parent="1" vertex="1">
          <mxGeometry x="130" y="310" width="100" height="40" as="geometry" />
        </mxCell>
        <mxCell id="a6ZegHU4mjPMl57HPd2a-16" style="rounded=0;orthogonalLoop=1;jettySize=auto;html=1;exitX=0.5;exitY=1;exitDx=0;exitDy=0;endArrow=none;startFill=0;entryX=0.341;entryY=-0.039;entryDx=0;entryDy=0;entryPerimeter=0;" parent="1" source="a6ZegHU4mjPMl57HPd2a-6" target="a6ZegHU4mjPMl57HPd2a-1" edge="1">
          <mxGeometry relative="1" as="geometry">
            <mxPoint x="190" y="310" as="targetPoint" />
          </mxGeometry>
        </mxCell>
        <mxCell id="a6ZegHU4mjPMl57HPd2a-6" value="VIN" style="ellipse;whiteSpace=wrap;html=1;" parent="1" vertex="1">
          <mxGeometry x="120" y="210" width="50" height="20" as="geometry" />
        </mxCell>
        <mxCell id="a6ZegHU4mjPMl57HPd2a-7" value="Model" style="ellipse;whiteSpace=wrap;html=1;" parent="1" vertex="1">
          <mxGeometry x="200" y="260" width="60" height="20" as="geometry" />
        </mxCell>
        <mxCell id="a6ZegHU4mjPMl57HPd2a-23" style="rounded=0;orthogonalLoop=1;jettySize=auto;html=1;exitX=0.5;exitY=1;exitDx=0;exitDy=0;endArrow=none;startFill=0;" parent="1" source="a6ZegHU4mjPMl57HPd2a-9" edge="1">
          <mxGeometry relative="1" as="geometry">
            <mxPoint x="190" y="310" as="targetPoint" />
          </mxGeometry>
        </mxCell>
        <mxCell id="a6ZegHU4mjPMl57HPd2a-9" value="BuildYear" style="ellipse;whiteSpace=wrap;html=1;" parent="1" vertex="1">
          <mxGeometry x="260" y="260" width="60" height="20" as="geometry" />
        </mxCell>
        <mxCell id="a6ZegHU4mjPMl57HPd2a-10" value="mileage" style="ellipse;whiteSpace=wrap;html=1;" parent="1" vertex="1">
          <mxGeometry x="50" y="300" width="60" height="20" as="geometry" />
        </mxCell>
        <mxCell id="a6ZegHU4mjPMl57HPd2a-19" style="rounded=0;orthogonalLoop=1;jettySize=auto;html=1;exitX=0.5;exitY=1;exitDx=0;exitDy=0;endArrow=none;startFill=0;entryX=0.5;entryY=0;entryDx=0;entryDy=0;" parent="1" source="a6ZegHU4mjPMl57HPd2a-17" target="a6ZegHU4mjPMl57HPd2a-1" edge="1">
          <mxGeometry relative="1" as="geometry" />
        </mxCell>
        <mxCell id="a6ZegHU4mjPMl57HPd2a-17" value="Make" style="ellipse;whiteSpace=wrap;html=1;" parent="1" vertex="1">
          <mxGeometry x="140" y="260" width="60" height="20" as="geometry" />
        </mxCell>
        <mxCell id="a6ZegHU4mjPMl57HPd2a-21" style="rounded=0;orthogonalLoop=1;jettySize=auto;html=1;exitX=0.5;exitY=1;exitDx=0;exitDy=0;entryX=0.5;entryY=0;entryDx=0;entryDy=0;endArrow=none;startFill=0;" parent="1" source="a6ZegHU4mjPMl57HPd2a-7" target="a6ZegHU4mjPMl57HPd2a-1" edge="1">
          <mxGeometry relative="1" as="geometry" />
        </mxCell>
        <mxCell id="a6ZegHU4mjPMl57HPd2a-24" value="colour" style="ellipse;whiteSpace=wrap;html=1;" parent="1" vertex="1">
          <mxGeometry x="90" y="230" width="60" height="20" as="geometry" />
        </mxCell>
        <mxCell id="a6ZegHU4mjPMl57HPd2a-32" style="rounded=0;orthogonalLoop=1;jettySize=auto;html=1;exitX=0.5;exitY=1;exitDx=0;exitDy=0;endArrow=none;startFill=0;entryX=0.5;entryY=0;entryDx=0;entryDy=0;" parent="1" source="a6ZegHU4mjPMl57HPd2a-25" target="a6ZegHU4mjPMl57HPd2a-1" edge="1">
          <mxGeometry relative="1" as="geometry" />
        </mxCell>
        <mxCell id="a6ZegHU4mjPMl57HPd2a-25" value="Transmission&lt;div&gt;Type&lt;/div&gt;" style="ellipse;whiteSpace=wrap;html=1;" parent="1" vertex="1">
          <mxGeometry x="170" y="220" width="60" height="30" as="geometry" />
        </mxCell>
        <mxCell id="a6ZegHU4mjPMl57HPd2a-29" style="rounded=0;orthogonalLoop=1;jettySize=auto;html=1;exitX=0.774;exitY=1.084;exitDx=0;exitDy=0;entryX=0.141;entryY=0.08;entryDx=0;entryDy=0;endArrow=none;startFill=0;exitPerimeter=0;entryPerimeter=0;" parent="1" source="a6ZegHU4mjPMl57HPd2a-24" target="a6ZegHU4mjPMl57HPd2a-1" edge="1">
          <mxGeometry relative="1" as="geometry" />
        </mxCell>
        <mxCell id="a6ZegHU4mjPMl57HPd2a-31" style="rounded=0;orthogonalLoop=1;jettySize=auto;html=1;exitX=1;exitY=1;exitDx=0;exitDy=0;entryX=0.019;entryY=0.078;entryDx=0;entryDy=0;entryPerimeter=0;endArrow=none;startFill=0;" parent="1" source="a6ZegHU4mjPMl57HPd2a-10" target="a6ZegHU4mjPMl57HPd2a-1" edge="1">
          <mxGeometry relative="1" as="geometry" />
        </mxCell>
        <mxCell id="a6ZegHU4mjPMl57HPd2a-35" style="rounded=0;orthogonalLoop=1;jettySize=auto;html=1;exitX=1;exitY=0.5;exitDx=0;exitDy=0;entryX=0.5;entryY=0;entryDx=0;entryDy=0;endArrow=none;startFill=0;" parent="1" source="a6ZegHU4mjPMl57HPd2a-33" target="a6ZegHU4mjPMl57HPd2a-1" edge="1">
          <mxGeometry relative="1" as="geometry" />
        </mxCell>
        <mxCell id="a6ZegHU4mjPMl57HPd2a-33" value="ListPrice" style="ellipse;whiteSpace=wrap;html=1;" parent="1" vertex="1">
          <mxGeometry x="250" y="230" width="60" height="20" as="geometry" />
        </mxCell>
        <mxCell id="a6ZegHU4mjPMl57HPd2a-36" value="" style="triangle;whiteSpace=wrap;html=1;rotation=-90;" parent="1" vertex="1">
          <mxGeometry x="150" y="385" width="60" height="80" as="geometry" />
        </mxCell>
        <mxCell id="O7FBZ9kJcWAxTpRi0SkO-111" style="rounded=0;orthogonalLoop=1;jettySize=auto;html=1;exitX=0.25;exitY=1;exitDx=0;exitDy=0;entryX=1;entryY=0.5;entryDx=0;entryDy=0;endArrow=none;startFill=0;" edge="1" parent="1" source="a6ZegHU4mjPMl57HPd2a-37" target="O7FBZ9kJcWAxTpRi0SkO-110">
          <mxGeometry relative="1" as="geometry" />
        </mxCell>
        <mxCell id="a6ZegHU4mjPMl57HPd2a-37" value="pre-ownedVehicle" style="whiteSpace=wrap;html=1;align=center;" parent="1" vertex="1">
          <mxGeometry x="30" y="510" width="100" height="40" as="geometry" />
        </mxCell>
        <mxCell id="a6ZegHU4mjPMl57HPd2a-39" value="ISA" style="text;strokeColor=none;align=center;fillColor=none;html=1;verticalAlign=middle;whiteSpace=wrap;rounded=0;" parent="1" vertex="1">
          <mxGeometry x="150" y="420" width="60" height="30" as="geometry" />
        </mxCell>
        <mxCell id="a6ZegHU4mjPMl57HPd2a-40" value="NewVehicle" style="whiteSpace=wrap;html=1;align=center;" parent="1" vertex="1">
          <mxGeometry x="230" y="510" width="100" height="40" as="geometry" />
        </mxCell>
        <mxCell id="a6ZegHU4mjPMl57HPd2a-41" value="" style="endArrow=none;html=1;rounded=0;exitX=0;exitY=0.5;exitDx=0;exitDy=0;entryX=0.5;entryY=0;entryDx=0;entryDy=0;" parent="1" source="a6ZegHU4mjPMl57HPd2a-36" target="a6ZegHU4mjPMl57HPd2a-37" edge="1">
          <mxGeometry relative="1" as="geometry">
            <mxPoint x="430" y="359.58" as="sourcePoint" />
            <mxPoint x="590" y="359.58" as="targetPoint" />
            <Array as="points" />
          </mxGeometry>
        </mxCell>
        <mxCell id="a6ZegHU4mjPMl57HPd2a-42" value="" style="endArrow=none;html=1;rounded=0;exitX=0;exitY=0.5;exitDx=0;exitDy=0;entryX=0.5;entryY=0;entryDx=0;entryDy=0;" parent="1" source="a6ZegHU4mjPMl57HPd2a-36" target="a6ZegHU4mjPMl57HPd2a-40" edge="1">
          <mxGeometry relative="1" as="geometry">
            <mxPoint x="370" y="440" as="sourcePoint" />
            <mxPoint x="530" y="440" as="targetPoint" />
          </mxGeometry>
        </mxCell>
        <mxCell id="a6ZegHU4mjPMl57HPd2a-45" value="" style="endArrow=none;html=1;rounded=0;exitX=0.5;exitY=1;exitDx=0;exitDy=0;entryX=1;entryY=0.5;entryDx=0;entryDy=0;" parent="1" source="a6ZegHU4mjPMl57HPd2a-1" target="a6ZegHU4mjPMl57HPd2a-36" edge="1">
          <mxGeometry relative="1" as="geometry">
            <mxPoint x="430" y="300" as="sourcePoint" />
            <mxPoint x="590" y="300" as="targetPoint" />
          </mxGeometry>
        </mxCell>
        <mxCell id="a6ZegHU4mjPMl57HPd2a-46" value="sale" style="shape=rhombus;perimeter=rhombusPerimeter;whiteSpace=wrap;html=1;align=center;" parent="1" vertex="1">
          <mxGeometry x="20" y="660" width="120" height="60" as="geometry" />
        </mxCell>
        <mxCell id="a6ZegHU4mjPMl57HPd2a-47" value="" style="endArrow=none;html=1;rounded=0;exitX=0.5;exitY=1;exitDx=0;exitDy=0;entryX=0.5;entryY=0;entryDx=0;entryDy=0;" parent="1" source="a6ZegHU4mjPMl57HPd2a-37" target="a6ZegHU4mjPMl57HPd2a-46" edge="1">
          <mxGeometry relative="1" as="geometry">
            <mxPoint x="430" y="640" as="sourcePoint" />
            <mxPoint x="590" y="640" as="targetPoint" />
          </mxGeometry>
        </mxCell>
        <mxCell id="a6ZegHU4mjPMl57HPd2a-48" value="pre-owner" style="rounded=1;arcSize=10;whiteSpace=wrap;html=1;align=center;" parent="1" vertex="1">
          <mxGeometry x="30" y="785" width="100" height="40" as="geometry" />
        </mxCell>
        <mxCell id="a6ZegHU4mjPMl57HPd2a-49" value="" style="endArrow=none;html=1;rounded=0;exitX=0.5;exitY=1;exitDx=0;exitDy=0;entryX=0.5;entryY=0;entryDx=0;entryDy=0;" parent="1" source="a6ZegHU4mjPMl57HPd2a-46" target="a6ZegHU4mjPMl57HPd2a-48" edge="1">
          <mxGeometry relative="1" as="geometry">
            <mxPoint x="430" y="745" as="sourcePoint" />
            <mxPoint x="590" y="745" as="targetPoint" />
          </mxGeometry>
        </mxCell>
        <mxCell id="a6ZegHU4mjPMl57HPd2a-51" value="detailed-information" style="shape=ext;margin=3;double=1;whiteSpace=wrap;html=1;align=center;" parent="1" vertex="1">
          <mxGeometry x="410" y="310" width="100" height="40" as="geometry" />
        </mxCell>
        <mxCell id="a6ZegHU4mjPMl57HPd2a-52" value="has" style="shape=rhombus;double=1;perimeter=rhombusPerimeter;whiteSpace=wrap;html=1;align=center;" parent="1" vertex="1">
          <mxGeometry x="270" y="305" width="100" height="50" as="geometry" />
        </mxCell>
        <mxCell id="a6ZegHU4mjPMl57HPd2a-54" value="pre-owner Id" style="ellipse;whiteSpace=wrap;html=1;align=center;" parent="1" vertex="1">
          <mxGeometry x="-40" y="855" width="90" height="20" as="geometry" />
        </mxCell>
        <mxCell id="a6ZegHU4mjPMl57HPd2a-55" value="pre-owner Name" style="ellipse;whiteSpace=wrap;html=1;align=center;" parent="1" vertex="1">
          <mxGeometry x="80" y="855" width="100" height="20" as="geometry" />
        </mxCell>
        <mxCell id="a6ZegHU4mjPMl57HPd2a-57" value="" style="endArrow=none;html=1;rounded=0;exitX=0.5;exitY=1;exitDx=0;exitDy=0;entryX=0.5;entryY=0;entryDx=0;entryDy=0;" parent="1" source="a6ZegHU4mjPMl57HPd2a-48" target="a6ZegHU4mjPMl57HPd2a-54" edge="1">
          <mxGeometry relative="1" as="geometry">
            <mxPoint x="430" y="655" as="sourcePoint" />
            <mxPoint x="590" y="655" as="targetPoint" />
          </mxGeometry>
        </mxCell>
        <mxCell id="a6ZegHU4mjPMl57HPd2a-58" value="" style="endArrow=none;html=1;rounded=0;exitX=0.5;exitY=1;exitDx=0;exitDy=0;entryX=0.5;entryY=0;entryDx=0;entryDy=0;" parent="1" source="a6ZegHU4mjPMl57HPd2a-48" target="a6ZegHU4mjPMl57HPd2a-55" edge="1">
          <mxGeometry relative="1" as="geometry">
            <mxPoint x="430" y="655" as="sourcePoint" />
            <mxPoint x="590" y="655" as="targetPoint" />
          </mxGeometry>
        </mxCell>
        <mxCell id="a6ZegHU4mjPMl57HPd2a-61" value="" style="endArrow=none;html=1;rounded=0;exitX=1;exitY=0.5;exitDx=0;exitDy=0;entryX=0;entryY=0.5;entryDx=0;entryDy=0;" parent="1" source="a6ZegHU4mjPMl57HPd2a-1" target="a6ZegHU4mjPMl57HPd2a-52" edge="1">
          <mxGeometry relative="1" as="geometry">
            <mxPoint x="430" y="300" as="sourcePoint" />
            <mxPoint x="590" y="300" as="targetPoint" />
          </mxGeometry>
        </mxCell>
        <mxCell id="a6ZegHU4mjPMl57HPd2a-62" value="" style="endArrow=none;html=1;rounded=0;exitX=1;exitY=0.5;exitDx=0;exitDy=0;entryX=0;entryY=0.5;entryDx=0;entryDy=0;" parent="1" source="a6ZegHU4mjPMl57HPd2a-52" target="a6ZegHU4mjPMl57HPd2a-51" edge="1">
          <mxGeometry relative="1" as="geometry">
            <mxPoint x="430" y="300" as="sourcePoint" />
            <mxPoint x="590" y="300" as="targetPoint" />
          </mxGeometry>
        </mxCell>
        <mxCell id="O7FBZ9kJcWAxTpRi0SkO-43" style="rounded=0;orthogonalLoop=1;jettySize=auto;html=1;exitX=1;exitY=0;exitDx=0;exitDy=0;entryX=0;entryY=0.5;entryDx=0;entryDy=0;endArrow=none;startFill=0;" edge="1" parent="1" source="a6ZegHU4mjPMl57HPd2a-64" target="O7FBZ9kJcWAxTpRi0SkO-40">
          <mxGeometry relative="1" as="geometry" />
        </mxCell>
        <mxCell id="a6ZegHU4mjPMl57HPd2a-64" value="Customer" style="whiteSpace=wrap;html=1;align=center;" parent="1" vertex="1">
          <mxGeometry x="-730" y="310" width="100" height="40" as="geometry" />
        </mxCell>
        <mxCell id="a6ZegHU4mjPMl57HPd2a-65" value="pre-owner Id" style="ellipse;whiteSpace=wrap;html=1;align=center;" parent="1" vertex="1">
          <mxGeometry x="-10" y="460" width="90" height="30" as="geometry" />
        </mxCell>
        <mxCell id="a6ZegHU4mjPMl57HPd2a-66" value="" style="endArrow=none;html=1;rounded=0;exitX=0.5;exitY=1;exitDx=0;exitDy=0;entryX=0.25;entryY=0;entryDx=0;entryDy=0;" parent="1" source="a6ZegHU4mjPMl57HPd2a-65" target="a6ZegHU4mjPMl57HPd2a-37" edge="1">
          <mxGeometry relative="1" as="geometry">
            <mxPoint x="100" y="550" as="sourcePoint" />
            <mxPoint x="260" y="550" as="targetPoint" />
          </mxGeometry>
        </mxCell>
        <mxCell id="a6ZegHU4mjPMl57HPd2a-67" value="VIN" style="ellipse;whiteSpace=wrap;html=1;align=center;" parent="1" vertex="1">
          <mxGeometry x="380" y="260" width="50" height="20" as="geometry" />
        </mxCell>
        <mxCell id="a6ZegHU4mjPMl57HPd2a-68" value="imgPath" style="ellipse;whiteSpace=wrap;html=1;align=center;" parent="1" vertex="1">
          <mxGeometry x="440" y="260" width="80" height="20" as="geometry" />
        </mxCell>
        <mxCell id="a6ZegHU4mjPMl57HPd2a-69" value="description" style="ellipse;whiteSpace=wrap;html=1;align=center;" parent="1" vertex="1">
          <mxGeometry x="530" y="260" width="70" height="20" as="geometry" />
        </mxCell>
        <mxCell id="a6ZegHU4mjPMl57HPd2a-70" value="" style="endArrow=none;html=1;rounded=0;entryX=0.5;entryY=1;entryDx=0;entryDy=0;exitX=0.5;exitY=0;exitDx=0;exitDy=0;" parent="1" source="a6ZegHU4mjPMl57HPd2a-51" target="a6ZegHU4mjPMl57HPd2a-67" edge="1">
          <mxGeometry relative="1" as="geometry">
            <mxPoint x="100" y="220" as="sourcePoint" />
            <mxPoint x="260" y="220" as="targetPoint" />
          </mxGeometry>
        </mxCell>
        <mxCell id="a6ZegHU4mjPMl57HPd2a-71" value="" style="endArrow=none;html=1;rounded=0;entryX=0.5;entryY=1;entryDx=0;entryDy=0;exitX=0.5;exitY=0;exitDx=0;exitDy=0;" parent="1" source="a6ZegHU4mjPMl57HPd2a-51" target="a6ZegHU4mjPMl57HPd2a-68" edge="1">
          <mxGeometry relative="1" as="geometry">
            <mxPoint x="100" y="220" as="sourcePoint" />
            <mxPoint x="260" y="220" as="targetPoint" />
          </mxGeometry>
        </mxCell>
        <mxCell id="a6ZegHU4mjPMl57HPd2a-73" value="" style="endArrow=none;html=1;rounded=0;entryX=0.5;entryY=1;entryDx=0;entryDy=0;exitX=0.555;exitY=0;exitDx=0;exitDy=0;exitPerimeter=0;" parent="1" source="a6ZegHU4mjPMl57HPd2a-51" target="a6ZegHU4mjPMl57HPd2a-69" edge="1">
          <mxGeometry relative="1" as="geometry">
            <mxPoint x="100" y="220" as="sourcePoint" />
            <mxPoint x="260" y="220" as="targetPoint" />
          </mxGeometry>
        </mxCell>
        <mxCell id="a6ZegHU4mjPMl57HPd2a-74" value="testDrive" style="whiteSpace=wrap;html=1;align=center;" parent="1" vertex="1">
          <mxGeometry x="-330" y="310" width="100" height="40" as="geometry" />
        </mxCell>
        <mxCell id="O7FBZ9kJcWAxTpRi0SkO-17" style="rounded=0;orthogonalLoop=1;jettySize=auto;html=1;endArrow=none;startFill=0;exitX=0.25;exitY=0;exitDx=0;exitDy=0;" edge="1" parent="1" source="a6ZegHU4mjPMl57HPd2a-74" target="O7FBZ9kJcWAxTpRi0SkO-12">
          <mxGeometry relative="1" as="geometry" />
        </mxCell>
        <mxCell id="O7FBZ9kJcWAxTpRi0SkO-18" style="rounded=0;orthogonalLoop=1;jettySize=auto;html=1;exitX=0.75;exitY=0;exitDx=0;exitDy=0;entryX=0.5;entryY=0;entryDx=0;entryDy=0;endArrow=none;startFill=0;" edge="1" parent="1" source="a6ZegHU4mjPMl57HPd2a-74" target="O7FBZ9kJcWAxTpRi0SkO-15">
          <mxGeometry relative="1" as="geometry" />
        </mxCell>
        <mxCell id="O7FBZ9kJcWAxTpRi0SkO-19" style="rounded=0;orthogonalLoop=1;jettySize=auto;html=1;exitX=0.5;exitY=1;exitDx=0;exitDy=0;entryX=0.5;entryY=0;entryDx=0;entryDy=0;endArrow=none;startFill=0;" edge="1" parent="1" source="a6ZegHU4mjPMl57HPd2a-75" target="O7FBZ9kJcWAxTpRi0SkO-11">
          <mxGeometry relative="1" as="geometry" />
        </mxCell>
        <mxCell id="O7FBZ9kJcWAxTpRi0SkO-20" style="rounded=0;orthogonalLoop=1;jettySize=auto;html=1;exitX=0.5;exitY=1;exitDx=0;exitDy=0;entryX=0.5;entryY=0;entryDx=0;entryDy=0;endArrow=none;startFill=0;" edge="1" parent="1" source="a6ZegHU4mjPMl57HPd2a-75" target="O7FBZ9kJcWAxTpRi0SkO-13">
          <mxGeometry relative="1" as="geometry" />
        </mxCell>
        <mxCell id="O7FBZ9kJcWAxTpRi0SkO-21" style="rounded=0;orthogonalLoop=1;jettySize=auto;html=1;exitX=0.5;exitY=1;exitDx=0;exitDy=0;entryX=0.5;entryY=0;entryDx=0;entryDy=0;endArrow=none;startFill=0;" edge="1" parent="1" source="a6ZegHU4mjPMl57HPd2a-75" target="O7FBZ9kJcWAxTpRi0SkO-9">
          <mxGeometry relative="1" as="geometry" />
        </mxCell>
        <mxCell id="a6ZegHU4mjPMl57HPd2a-75" value="include" style="shape=rhombus;perimeter=rhombusPerimeter;whiteSpace=wrap;html=1;align=center;" parent="1" vertex="1">
          <mxGeometry x="-100" y="300" width="120" height="60" as="geometry" />
        </mxCell>
        <mxCell id="a6ZegHU4mjPMl57HPd2a-76" value="" style="endArrow=none;html=1;rounded=0;entryX=0;entryY=0.5;entryDx=0;entryDy=0;" parent="1" source="a6ZegHU4mjPMl57HPd2a-75" target="a6ZegHU4mjPMl57HPd2a-1" edge="1">
          <mxGeometry relative="1" as="geometry">
            <mxPoint x="10" y="340" as="sourcePoint" />
            <mxPoint x="70" y="340" as="targetPoint" />
          </mxGeometry>
        </mxCell>
        <mxCell id="a6ZegHU4mjPMl57HPd2a-78" value="" style="endArrow=none;html=1;rounded=0;exitX=1;exitY=0.5;exitDx=0;exitDy=0;" parent="1" source="a6ZegHU4mjPMl57HPd2a-74" edge="1" target="a6ZegHU4mjPMl57HPd2a-75">
          <mxGeometry relative="1" as="geometry">
            <mxPoint x="-90" y="340" as="sourcePoint" />
            <mxPoint x="-80" y="330" as="targetPoint" />
          </mxGeometry>
        </mxCell>
        <mxCell id="a6ZegHU4mjPMl57HPd2a-80" value="attend" style="shape=rhombus;perimeter=rhombusPerimeter;whiteSpace=wrap;html=1;align=center;" parent="1" vertex="1">
          <mxGeometry x="-560" y="300" width="120" height="60" as="geometry" />
        </mxCell>
        <mxCell id="a6ZegHU4mjPMl57HPd2a-81" value="" style="endArrow=none;html=1;rounded=0;exitX=1;exitY=0.5;exitDx=0;exitDy=0;" parent="1" source="a6ZegHU4mjPMl57HPd2a-80" target="a6ZegHU4mjPMl57HPd2a-74" edge="1">
          <mxGeometry relative="1" as="geometry">
            <mxPoint x="-430" y="330" as="sourcePoint" />
            <mxPoint x="-330" y="330" as="targetPoint" />
          </mxGeometry>
        </mxCell>
        <mxCell id="a6ZegHU4mjPMl57HPd2a-84" value="" style="endArrow=none;html=1;rounded=0;exitX=1;exitY=0.5;exitDx=0;exitDy=0;entryX=0;entryY=0.5;entryDx=0;entryDy=0;" parent="1" source="a6ZegHU4mjPMl57HPd2a-64" target="a6ZegHU4mjPMl57HPd2a-80" edge="1">
          <mxGeometry relative="1" as="geometry">
            <mxPoint x="-590" y="229.17" as="sourcePoint" />
            <mxPoint x="-430" y="229.17" as="targetPoint" />
          </mxGeometry>
        </mxCell>
        <mxCell id="O7FBZ9kJcWAxTpRi0SkO-77" style="rounded=0;orthogonalLoop=1;jettySize=auto;html=1;exitX=0;exitY=1;exitDx=0;exitDy=0;entryX=0.5;entryY=0;entryDx=0;entryDy=0;endArrow=none;startFill=0;" edge="1" parent="1" source="a6ZegHU4mjPMl57HPd2a-86" target="O7FBZ9kJcWAxTpRi0SkO-70">
          <mxGeometry relative="1" as="geometry" />
        </mxCell>
        <mxCell id="O7FBZ9kJcWAxTpRi0SkO-78" style="rounded=0;orthogonalLoop=1;jettySize=auto;html=1;exitX=0.25;exitY=1;exitDx=0;exitDy=0;endArrow=none;startFill=0;" edge="1" parent="1" source="a6ZegHU4mjPMl57HPd2a-86" target="O7FBZ9kJcWAxTpRi0SkO-71">
          <mxGeometry relative="1" as="geometry" />
        </mxCell>
        <mxCell id="O7FBZ9kJcWAxTpRi0SkO-79" style="rounded=0;orthogonalLoop=1;jettySize=auto;html=1;exitX=0.5;exitY=1;exitDx=0;exitDy=0;entryX=0.5;entryY=0;entryDx=0;entryDy=0;endArrow=none;startFill=0;" edge="1" parent="1" source="a6ZegHU4mjPMl57HPd2a-86" target="O7FBZ9kJcWAxTpRi0SkO-72">
          <mxGeometry relative="1" as="geometry" />
        </mxCell>
        <mxCell id="O7FBZ9kJcWAxTpRi0SkO-80" style="rounded=0;orthogonalLoop=1;jettySize=auto;html=1;exitX=0.75;exitY=1;exitDx=0;exitDy=0;entryX=0.5;entryY=0;entryDx=0;entryDy=0;endArrow=none;startFill=0;" edge="1" parent="1" source="a6ZegHU4mjPMl57HPd2a-86" target="O7FBZ9kJcWAxTpRi0SkO-73">
          <mxGeometry relative="1" as="geometry" />
        </mxCell>
        <mxCell id="O7FBZ9kJcWAxTpRi0SkO-81" style="rounded=0;orthogonalLoop=1;jettySize=auto;html=1;exitX=0.25;exitY=1;exitDx=0;exitDy=0;entryX=0.5;entryY=0;entryDx=0;entryDy=0;endArrow=none;startFill=0;" edge="1" parent="1" source="a6ZegHU4mjPMl57HPd2a-86" target="O7FBZ9kJcWAxTpRi0SkO-75">
          <mxGeometry relative="1" as="geometry" />
        </mxCell>
        <mxCell id="O7FBZ9kJcWAxTpRi0SkO-82" style="rounded=0;orthogonalLoop=1;jettySize=auto;html=1;exitX=0.5;exitY=1;exitDx=0;exitDy=0;entryX=0.5;entryY=0;entryDx=0;entryDy=0;endArrow=none;startFill=0;" edge="1" parent="1" source="a6ZegHU4mjPMl57HPd2a-86" target="O7FBZ9kJcWAxTpRi0SkO-76">
          <mxGeometry relative="1" as="geometry" />
        </mxCell>
        <mxCell id="a6ZegHU4mjPMl57HPd2a-86" value="Saleperson" style="whiteSpace=wrap;html=1;align=center;" parent="1" vertex="1">
          <mxGeometry x="-330" y="660" width="100" height="40" as="geometry" />
        </mxCell>
        <mxCell id="a6ZegHU4mjPMl57HPd2a-87" value="schedule" style="shape=rhombus;perimeter=rhombusPerimeter;whiteSpace=wrap;html=1;align=center;" parent="1" vertex="1">
          <mxGeometry x="-340" y="480" width="120" height="60" as="geometry" />
        </mxCell>
        <mxCell id="a6ZegHU4mjPMl57HPd2a-88" value="" style="endArrow=none;html=1;rounded=0;exitX=0.5;exitY=1;exitDx=0;exitDy=0;" parent="1" source="a6ZegHU4mjPMl57HPd2a-74" target="a6ZegHU4mjPMl57HPd2a-87" edge="1">
          <mxGeometry relative="1" as="geometry">
            <mxPoint x="-430" y="420" as="sourcePoint" />
            <mxPoint x="-270" y="420" as="targetPoint" />
          </mxGeometry>
        </mxCell>
        <mxCell id="a6ZegHU4mjPMl57HPd2a-89" value="" style="endArrow=none;html=1;rounded=0;exitX=0.5;exitY=1;exitDx=0;exitDy=0;entryX=0.5;entryY=0;entryDx=0;entryDy=0;" parent="1" source="a6ZegHU4mjPMl57HPd2a-87" target="a6ZegHU4mjPMl57HPd2a-86" edge="1">
          <mxGeometry relative="1" as="geometry">
            <mxPoint x="-430" y="420" as="sourcePoint" />
            <mxPoint x="-270" y="420" as="targetPoint" />
          </mxGeometry>
        </mxCell>
        <mxCell id="O7FBZ9kJcWAxTpRi0SkO-6" style="rounded=0;orthogonalLoop=1;jettySize=auto;html=1;exitX=0.5;exitY=1;exitDx=0;exitDy=0;endArrow=none;startFill=0;" edge="1" parent="1" source="O7FBZ9kJcWAxTpRi0SkO-1" target="a6ZegHU4mjPMl57HPd2a-74">
          <mxGeometry relative="1" as="geometry" />
        </mxCell>
        <mxCell id="O7FBZ9kJcWAxTpRi0SkO-1" value="t_id" style="ellipse;whiteSpace=wrap;html=1;align=center;" vertex="1" parent="1">
          <mxGeometry x="-370" y="270" width="53" height="30" as="geometry" />
        </mxCell>
        <mxCell id="O7FBZ9kJcWAxTpRi0SkO-7" style="rounded=0;orthogonalLoop=1;jettySize=auto;html=1;exitX=0.5;exitY=1;exitDx=0;exitDy=0;entryX=0.5;entryY=0;entryDx=0;entryDy=0;endArrow=none;startFill=0;" edge="1" parent="1" source="O7FBZ9kJcWAxTpRi0SkO-2" target="a6ZegHU4mjPMl57HPd2a-74">
          <mxGeometry relative="1" as="geometry" />
        </mxCell>
        <mxCell id="O7FBZ9kJcWAxTpRi0SkO-2" value="c_id" style="ellipse;whiteSpace=wrap;html=1;align=center;" vertex="1" parent="1">
          <mxGeometry x="-305" y="270" width="50" height="30" as="geometry" />
        </mxCell>
        <mxCell id="O7FBZ9kJcWAxTpRi0SkO-3" value="s_id" style="ellipse;whiteSpace=wrap;html=1;align=center;" vertex="1" parent="1">
          <mxGeometry x="-240" y="270" width="50" height="30" as="geometry" />
        </mxCell>
        <mxCell id="O7FBZ9kJcWAxTpRi0SkO-8" style="rounded=0;orthogonalLoop=1;jettySize=auto;html=1;exitX=0.5;exitY=1;exitDx=0;exitDy=0;entryX=0.865;entryY=-0.039;entryDx=0;entryDy=0;entryPerimeter=0;endArrow=none;startFill=0;" edge="1" parent="1" source="O7FBZ9kJcWAxTpRi0SkO-3" target="a6ZegHU4mjPMl57HPd2a-74">
          <mxGeometry relative="1" as="geometry" />
        </mxCell>
        <mxCell id="O7FBZ9kJcWAxTpRi0SkO-9" value="t_id" style="ellipse;whiteSpace=wrap;html=1;align=center;" vertex="1" parent="1">
          <mxGeometry x="37" y="380" width="53" height="30" as="geometry" />
        </mxCell>
        <mxCell id="O7FBZ9kJcWAxTpRi0SkO-11" value="v_id" style="ellipse;whiteSpace=wrap;html=1;align=center;" vertex="1" parent="1">
          <mxGeometry x="-80" y="390" width="53" height="30" as="geometry" />
        </mxCell>
        <mxCell id="O7FBZ9kJcWAxTpRi0SkO-12" value="date" style="ellipse;whiteSpace=wrap;html=1;align=center;" vertex="1" parent="1">
          <mxGeometry x="-340" y="230" width="53" height="30" as="geometry" />
        </mxCell>
        <mxCell id="O7FBZ9kJcWAxTpRi0SkO-13" value="feedback" style="ellipse;whiteSpace=wrap;html=1;align=center;" vertex="1" parent="1">
          <mxGeometry x="-21.5" y="390" width="53" height="30" as="geometry" />
        </mxCell>
        <mxCell id="O7FBZ9kJcWAxTpRi0SkO-15" value="time" style="ellipse;whiteSpace=wrap;html=1;align=center;" vertex="1" parent="1">
          <mxGeometry x="-273" y="230" width="53" height="30" as="geometry" />
        </mxCell>
        <mxCell id="O7FBZ9kJcWAxTpRi0SkO-32" style="rounded=0;orthogonalLoop=1;jettySize=auto;html=1;exitX=1;exitY=1;exitDx=0;exitDy=0;entryX=0.25;entryY=0;entryDx=0;entryDy=0;endArrow=none;startFill=0;" edge="1" parent="1" source="O7FBZ9kJcWAxTpRi0SkO-23" target="a6ZegHU4mjPMl57HPd2a-64">
          <mxGeometry relative="1" as="geometry" />
        </mxCell>
        <mxCell id="O7FBZ9kJcWAxTpRi0SkO-23" value="c_id" style="ellipse;whiteSpace=wrap;html=1;align=center;" vertex="1" parent="1">
          <mxGeometry x="-800" y="255" width="53" height="30" as="geometry" />
        </mxCell>
        <mxCell id="O7FBZ9kJcWAxTpRi0SkO-34" style="rounded=0;orthogonalLoop=1;jettySize=auto;html=1;exitX=1;exitY=0.5;exitDx=0;exitDy=0;entryX=0;entryY=0.75;entryDx=0;entryDy=0;endArrow=none;startFill=0;" edge="1" parent="1" source="O7FBZ9kJcWAxTpRi0SkO-24" target="a6ZegHU4mjPMl57HPd2a-64">
          <mxGeometry relative="1" as="geometry" />
        </mxCell>
        <mxCell id="O7FBZ9kJcWAxTpRi0SkO-24" value="email" style="ellipse;whiteSpace=wrap;html=1;align=center;" vertex="1" parent="1">
          <mxGeometry x="-800" y="340" width="53" height="30" as="geometry" />
        </mxCell>
        <mxCell id="O7FBZ9kJcWAxTpRi0SkO-33" style="rounded=0;orthogonalLoop=1;jettySize=auto;html=1;exitX=1;exitY=0.5;exitDx=0;exitDy=0;entryX=0;entryY=0.25;entryDx=0;entryDy=0;endArrow=none;startFill=0;" edge="1" parent="1" source="O7FBZ9kJcWAxTpRi0SkO-25" target="a6ZegHU4mjPMl57HPd2a-64">
          <mxGeometry relative="1" as="geometry" />
        </mxCell>
        <mxCell id="O7FBZ9kJcWAxTpRi0SkO-25" value="mobile&lt;div&gt;number&lt;/div&gt;" style="ellipse;whiteSpace=wrap;html=1;align=center;" vertex="1" parent="1">
          <mxGeometry x="-800" y="300" width="53" height="30" as="geometry" />
        </mxCell>
        <mxCell id="O7FBZ9kJcWAxTpRi0SkO-31" style="rounded=0;orthogonalLoop=1;jettySize=auto;html=1;exitX=0.5;exitY=1;exitDx=0;exitDy=0;entryX=0.75;entryY=0;entryDx=0;entryDy=0;endArrow=none;startFill=0;" edge="1" parent="1" source="O7FBZ9kJcWAxTpRi0SkO-26" target="a6ZegHU4mjPMl57HPd2a-64">
          <mxGeometry relative="1" as="geometry" />
        </mxCell>
        <mxCell id="O7FBZ9kJcWAxTpRi0SkO-26" value="last_name" style="ellipse;whiteSpace=wrap;html=1;align=center;" vertex="1" parent="1">
          <mxGeometry x="-690" y="225" width="60" height="30" as="geometry" />
        </mxCell>
        <mxCell id="O7FBZ9kJcWAxTpRi0SkO-27" value="first_name" style="ellipse;whiteSpace=wrap;html=1;align=center;" vertex="1" parent="1">
          <mxGeometry x="-740" y="255" width="70" height="30" as="geometry" />
        </mxCell>
        <mxCell id="O7FBZ9kJcWAxTpRi0SkO-35" style="rounded=0;orthogonalLoop=1;jettySize=auto;html=1;exitX=0.5;exitY=0;exitDx=0;exitDy=0;entryX=0.25;entryY=1;entryDx=0;entryDy=0;endArrow=none;startFill=0;" edge="1" parent="1" source="O7FBZ9kJcWAxTpRi0SkO-28" target="a6ZegHU4mjPMl57HPd2a-64">
          <mxGeometry relative="1" as="geometry" />
        </mxCell>
        <mxCell id="O7FBZ9kJcWAxTpRi0SkO-28" value="residential&lt;div&gt;address&lt;/div&gt;" style="ellipse;whiteSpace=wrap;html=1;align=center;" vertex="1" parent="1">
          <mxGeometry x="-750" y="370" width="60" height="40" as="geometry" />
        </mxCell>
        <mxCell id="O7FBZ9kJcWAxTpRi0SkO-36" style="rounded=0;orthogonalLoop=1;jettySize=auto;html=1;exitX=0;exitY=0;exitDx=0;exitDy=0;entryX=0.75;entryY=1;entryDx=0;entryDy=0;endArrow=none;startFill=0;" edge="1" parent="1" source="O7FBZ9kJcWAxTpRi0SkO-29" target="a6ZegHU4mjPMl57HPd2a-64">
          <mxGeometry relative="1" as="geometry" />
        </mxCell>
        <mxCell id="O7FBZ9kJcWAxTpRi0SkO-29" value="driver licence number" style="ellipse;whiteSpace=wrap;html=1;align=center;" vertex="1" parent="1">
          <mxGeometry x="-670" y="375" width="115" height="30" as="geometry" />
        </mxCell>
        <mxCell id="O7FBZ9kJcWAxTpRi0SkO-30" style="rounded=0;orthogonalLoop=1;jettySize=auto;html=1;exitX=0.5;exitY=1;exitDx=0;exitDy=0;entryX=0.5;entryY=0;entryDx=0;entryDy=0;endArrow=none;startFill=0;" edge="1" parent="1" source="O7FBZ9kJcWAxTpRi0SkO-27" target="a6ZegHU4mjPMl57HPd2a-64">
          <mxGeometry relative="1" as="geometry" />
        </mxCell>
        <mxCell id="O7FBZ9kJcWAxTpRi0SkO-46" style="rounded=0;orthogonalLoop=1;jettySize=auto;html=1;exitX=1;exitY=0.5;exitDx=0;exitDy=0;entryX=0;entryY=0.5;entryDx=0;entryDy=0;endArrow=none;startFill=0;" edge="1" parent="1" source="O7FBZ9kJcWAxTpRi0SkO-38" target="O7FBZ9kJcWAxTpRi0SkO-41">
          <mxGeometry relative="1" as="geometry" />
        </mxCell>
        <mxCell id="O7FBZ9kJcWAxTpRi0SkO-59" style="rounded=0;orthogonalLoop=1;jettySize=auto;html=1;exitX=0.089;exitY=0.973;exitDx=0;exitDy=0;entryX=0.5;entryY=0;entryDx=0;entryDy=0;endArrow=none;startFill=0;exitPerimeter=0;" edge="1" parent="1" source="O7FBZ9kJcWAxTpRi0SkO-38" target="O7FBZ9kJcWAxTpRi0SkO-52">
          <mxGeometry relative="1" as="geometry" />
        </mxCell>
        <mxCell id="O7FBZ9kJcWAxTpRi0SkO-60" style="rounded=0;orthogonalLoop=1;jettySize=auto;html=1;exitX=0.5;exitY=1;exitDx=0;exitDy=0;entryX=0.5;entryY=0;entryDx=0;entryDy=0;endArrow=none;startFill=0;" edge="1" parent="1" source="O7FBZ9kJcWAxTpRi0SkO-38" target="O7FBZ9kJcWAxTpRi0SkO-53">
          <mxGeometry relative="1" as="geometry" />
        </mxCell>
        <mxCell id="O7FBZ9kJcWAxTpRi0SkO-61" style="rounded=0;orthogonalLoop=1;jettySize=auto;html=1;exitX=0.75;exitY=1;exitDx=0;exitDy=0;endArrow=none;startFill=0;" edge="1" parent="1" source="O7FBZ9kJcWAxTpRi0SkO-38" target="O7FBZ9kJcWAxTpRi0SkO-54">
          <mxGeometry relative="1" as="geometry" />
        </mxCell>
        <mxCell id="O7FBZ9kJcWAxTpRi0SkO-62" style="rounded=0;orthogonalLoop=1;jettySize=auto;html=1;exitX=1;exitY=1;exitDx=0;exitDy=0;entryX=0.5;entryY=0;entryDx=0;entryDy=0;endArrow=none;startFill=0;" edge="1" parent="1" source="O7FBZ9kJcWAxTpRi0SkO-38" target="O7FBZ9kJcWAxTpRi0SkO-55">
          <mxGeometry relative="1" as="geometry" />
        </mxCell>
        <mxCell id="O7FBZ9kJcWAxTpRi0SkO-63" style="rounded=0;orthogonalLoop=1;jettySize=auto;html=1;exitX=0.165;exitY=1.044;exitDx=0;exitDy=0;endArrow=none;startFill=0;entryX=0.5;entryY=0;entryDx=0;entryDy=0;exitPerimeter=0;" edge="1" parent="1" source="O7FBZ9kJcWAxTpRi0SkO-38" target="O7FBZ9kJcWAxTpRi0SkO-48">
          <mxGeometry relative="1" as="geometry" />
        </mxCell>
        <mxCell id="O7FBZ9kJcWAxTpRi0SkO-64" style="rounded=0;orthogonalLoop=1;jettySize=auto;html=1;exitX=0.346;exitY=1.044;exitDx=0;exitDy=0;entryX=0.5;entryY=0;entryDx=0;entryDy=0;endArrow=none;startFill=0;exitPerimeter=0;" edge="1" parent="1" source="O7FBZ9kJcWAxTpRi0SkO-38" target="O7FBZ9kJcWAxTpRi0SkO-50">
          <mxGeometry relative="1" as="geometry" />
        </mxCell>
        <mxCell id="O7FBZ9kJcWAxTpRi0SkO-65" style="rounded=0;orthogonalLoop=1;jettySize=auto;html=1;exitX=0.613;exitY=1.044;exitDx=0;exitDy=0;entryX=0.5;entryY=0;entryDx=0;entryDy=0;endArrow=none;startFill=0;exitPerimeter=0;" edge="1" parent="1" source="O7FBZ9kJcWAxTpRi0SkO-38" target="O7FBZ9kJcWAxTpRi0SkO-51">
          <mxGeometry relative="1" as="geometry" />
        </mxCell>
        <mxCell id="O7FBZ9kJcWAxTpRi0SkO-66" style="rounded=0;orthogonalLoop=1;jettySize=auto;html=1;exitX=1;exitY=1;exitDx=0;exitDy=0;endArrow=none;startFill=0;" edge="1" parent="1" source="O7FBZ9kJcWAxTpRi0SkO-38" target="O7FBZ9kJcWAxTpRi0SkO-57">
          <mxGeometry relative="1" as="geometry" />
        </mxCell>
        <mxCell id="O7FBZ9kJcWAxTpRi0SkO-69" style="rounded=0;orthogonalLoop=1;jettySize=auto;html=1;exitX=0;exitY=1;exitDx=0;exitDy=0;endArrow=none;startFill=0;" edge="1" parent="1" source="O7FBZ9kJcWAxTpRi0SkO-38" target="O7FBZ9kJcWAxTpRi0SkO-68">
          <mxGeometry relative="1" as="geometry" />
        </mxCell>
        <mxCell id="O7FBZ9kJcWAxTpRi0SkO-38" value="purchasement" style="whiteSpace=wrap;html=1;align=center;" vertex="1" parent="1">
          <mxGeometry x="-320" y="60" width="100" height="40" as="geometry" />
        </mxCell>
        <mxCell id="O7FBZ9kJcWAxTpRi0SkO-44" style="rounded=0;orthogonalLoop=1;jettySize=auto;html=1;exitX=1;exitY=0.5;exitDx=0;exitDy=0;entryX=0;entryY=0.5;entryDx=0;entryDy=0;endArrow=none;startFill=0;" edge="1" parent="1" source="O7FBZ9kJcWAxTpRi0SkO-40" target="O7FBZ9kJcWAxTpRi0SkO-38">
          <mxGeometry relative="1" as="geometry" />
        </mxCell>
        <mxCell id="O7FBZ9kJcWAxTpRi0SkO-40" value="have" style="shape=rhombus;perimeter=rhombusPerimeter;whiteSpace=wrap;html=1;align=center;" vertex="1" parent="1">
          <mxGeometry x="-555" y="50" width="120" height="60" as="geometry" />
        </mxCell>
        <mxCell id="O7FBZ9kJcWAxTpRi0SkO-47" style="rounded=0;orthogonalLoop=1;jettySize=auto;html=1;exitX=1;exitY=0.5;exitDx=0;exitDy=0;endArrow=none;startFill=0;" edge="1" parent="1" source="O7FBZ9kJcWAxTpRi0SkO-41">
          <mxGeometry relative="1" as="geometry">
            <mxPoint x="130" y="310" as="targetPoint" />
          </mxGeometry>
        </mxCell>
        <mxCell id="O7FBZ9kJcWAxTpRi0SkO-41" value="include" style="shape=rhombus;perimeter=rhombusPerimeter;whiteSpace=wrap;html=1;align=center;" vertex="1" parent="1">
          <mxGeometry x="-83" y="50" width="120" height="60" as="geometry" />
        </mxCell>
        <mxCell id="O7FBZ9kJcWAxTpRi0SkO-48" value="c_id" style="ellipse;whiteSpace=wrap;html=1;align=center;" vertex="1" parent="1">
          <mxGeometry x="-383" y="170" width="53" height="30" as="geometry" />
        </mxCell>
        <mxCell id="O7FBZ9kJcWAxTpRi0SkO-50" value="p_id" style="ellipse;whiteSpace=wrap;html=1;align=center;" vertex="1" parent="1">
          <mxGeometry x="-317" y="170" width="53" height="30" as="geometry" />
        </mxCell>
        <mxCell id="O7FBZ9kJcWAxTpRi0SkO-51" value="v_id" style="ellipse;whiteSpace=wrap;html=1;align=center;" vertex="1" parent="1">
          <mxGeometry x="-243" y="170" width="53" height="30" as="geometry" />
        </mxCell>
        <mxCell id="O7FBZ9kJcWAxTpRi0SkO-52" value="s_id" style="ellipse;whiteSpace=wrap;html=1;align=center;" vertex="1" parent="1">
          <mxGeometry x="-370" y="130" width="53" height="30" as="geometry" />
        </mxCell>
        <mxCell id="O7FBZ9kJcWAxTpRi0SkO-53" value="base_price" style="ellipse;whiteSpace=wrap;html=1;align=center;" vertex="1" parent="1">
          <mxGeometry x="-306.5" y="130" width="66.5" height="30" as="geometry" />
        </mxCell>
        <mxCell id="O7FBZ9kJcWAxTpRi0SkO-54" value="discount" style="ellipse;whiteSpace=wrap;html=1;align=center;" vertex="1" parent="1">
          <mxGeometry x="-220" y="130" width="53" height="30" as="geometry" />
        </mxCell>
        <mxCell id="O7FBZ9kJcWAxTpRi0SkO-55" value="date" style="ellipse;whiteSpace=wrap;html=1;align=center;" vertex="1" parent="1">
          <mxGeometry x="-160" y="130" width="53" height="30" as="geometry" />
        </mxCell>
        <mxCell id="O7FBZ9kJcWAxTpRi0SkO-57" value="final_price" style="ellipse;whiteSpace=wrap;html=1;align=center;" vertex="1" parent="1">
          <mxGeometry x="-180" y="170" width="60" height="30" as="geometry" />
        </mxCell>
        <mxCell id="O7FBZ9kJcWAxTpRi0SkO-68" value="trade-in_id" style="ellipse;whiteSpace=wrap;html=1;align=center;" vertex="1" parent="1">
          <mxGeometry x="-463" y="127.5" width="80" height="35" as="geometry" />
        </mxCell>
        <mxCell id="O7FBZ9kJcWAxTpRi0SkO-70" value="s_id" style="ellipse;whiteSpace=wrap;html=1;align=center;" vertex="1" parent="1">
          <mxGeometry x="-480" y="730" width="80" height="35" as="geometry" />
        </mxCell>
        <mxCell id="O7FBZ9kJcWAxTpRi0SkO-71" value="full_name" style="ellipse;whiteSpace=wrap;html=1;align=center;" vertex="1" parent="1">
          <mxGeometry x="-396.5" y="730" width="80" height="35" as="geometry" />
        </mxCell>
        <mxCell id="O7FBZ9kJcWAxTpRi0SkO-72" value="email" style="ellipse;whiteSpace=wrap;html=1;align=center;" vertex="1" parent="1">
          <mxGeometry x="-313.25" y="730" width="80" height="35" as="geometry" />
        </mxCell>
        <mxCell id="O7FBZ9kJcWAxTpRi0SkO-73" value="mobile number" style="ellipse;whiteSpace=wrap;html=1;align=center;" vertex="1" parent="1">
          <mxGeometry x="-230" y="730" width="80" height="35" as="geometry" />
        </mxCell>
        <mxCell id="O7FBZ9kJcWAxTpRi0SkO-75" value="annual gross&lt;div&gt;salary&lt;/div&gt;" style="ellipse;whiteSpace=wrap;html=1;align=center;" vertex="1" parent="1">
          <mxGeometry x="-430" y="770" width="80" height="35" as="geometry" />
        </mxCell>
        <mxCell id="O7FBZ9kJcWAxTpRi0SkO-76" value="commission&lt;div&gt;rate&lt;/div&gt;" style="ellipse;whiteSpace=wrap;html=1;align=center;" vertex="1" parent="1">
          <mxGeometry x="-264" y="770" width="80" height="35" as="geometry" />
        </mxCell>
        <mxCell id="O7FBZ9kJcWAxTpRi0SkO-85" value="aftermarket" style="whiteSpace=wrap;html=1;align=center;" vertex="1" parent="1">
          <mxGeometry x="-320" y="-200" width="100" height="40" as="geometry" />
        </mxCell>
        <mxCell id="O7FBZ9kJcWAxTpRi0SkO-95" style="rounded=0;orthogonalLoop=1;jettySize=auto;html=1;exitX=1;exitY=0.5;exitDx=0;exitDy=0;entryX=0;entryY=0.5;entryDx=0;entryDy=0;endArrow=none;startFill=0;" edge="1" parent="1" source="O7FBZ9kJcWAxTpRi0SkO-86" target="O7FBZ9kJcWAxTpRi0SkO-94">
          <mxGeometry relative="1" as="geometry" />
        </mxCell>
        <mxCell id="O7FBZ9kJcWAxTpRi0SkO-86" value="include" style="shape=rhombus;perimeter=rhombusPerimeter;whiteSpace=wrap;html=1;align=center;" vertex="1" parent="1">
          <mxGeometry x="-330" y="-90" width="120" height="60" as="geometry" />
        </mxCell>
        <mxCell id="O7FBZ9kJcWAxTpRi0SkO-87" value="" style="endArrow=none;html=1;rounded=0;exitX=0.5;exitY=1;exitDx=0;exitDy=0;" edge="1" parent="1" source="O7FBZ9kJcWAxTpRi0SkO-85" target="O7FBZ9kJcWAxTpRi0SkO-86">
          <mxGeometry relative="1" as="geometry">
            <mxPoint x="-350" y="-60" as="sourcePoint" />
            <mxPoint x="-190" y="-60" as="targetPoint" />
          </mxGeometry>
        </mxCell>
        <mxCell id="O7FBZ9kJcWAxTpRi0SkO-88" value="" style="endArrow=none;html=1;rounded=0;entryX=0.5;entryY=1;entryDx=0;entryDy=0;exitX=0.5;exitY=0;exitDx=0;exitDy=0;" edge="1" parent="1" source="O7FBZ9kJcWAxTpRi0SkO-38" target="O7FBZ9kJcWAxTpRi0SkO-86">
          <mxGeometry relative="1" as="geometry">
            <mxPoint x="-350" y="-60" as="sourcePoint" />
            <mxPoint x="-190" y="-60" as="targetPoint" />
          </mxGeometry>
        </mxCell>
        <mxCell id="O7FBZ9kJcWAxTpRi0SkO-90" value="p_id" style="ellipse;whiteSpace=wrap;html=1;align=center;" vertex="1" parent="1">
          <mxGeometry x="-183" y="-130" width="100" height="40" as="geometry" />
        </mxCell>
        <mxCell id="O7FBZ9kJcWAxTpRi0SkO-91" value="a_id" style="ellipse;whiteSpace=wrap;html=1;align=center;" vertex="1" parent="1">
          <mxGeometry x="-184" y="-80" width="100" height="40" as="geometry" />
        </mxCell>
        <mxCell id="O7FBZ9kJcWAxTpRi0SkO-92" value="" style="endArrow=none;html=1;rounded=0;exitX=0;exitY=0.5;exitDx=0;exitDy=0;entryX=1;entryY=0.5;entryDx=0;entryDy=0;" edge="1" parent="1" source="O7FBZ9kJcWAxTpRi0SkO-90" target="O7FBZ9kJcWAxTpRi0SkO-86">
          <mxGeometry relative="1" as="geometry">
            <mxPoint x="-350" y="40" as="sourcePoint" />
            <mxPoint x="-190" y="40" as="targetPoint" />
          </mxGeometry>
        </mxCell>
        <mxCell id="O7FBZ9kJcWAxTpRi0SkO-93" value="" style="endArrow=none;html=1;rounded=0;exitX=1;exitY=0.5;exitDx=0;exitDy=0;entryX=0;entryY=0.5;entryDx=0;entryDy=0;" edge="1" parent="1" source="O7FBZ9kJcWAxTpRi0SkO-86" target="O7FBZ9kJcWAxTpRi0SkO-91">
          <mxGeometry relative="1" as="geometry">
            <mxPoint x="-350" y="40" as="sourcePoint" />
            <mxPoint x="-190" y="40" as="targetPoint" />
          </mxGeometry>
        </mxCell>
        <mxCell id="O7FBZ9kJcWAxTpRi0SkO-94" value="price" style="ellipse;whiteSpace=wrap;html=1;align=center;" vertex="1" parent="1">
          <mxGeometry x="-180" y="-30" width="100" height="40" as="geometry" />
        </mxCell>
        <mxCell id="O7FBZ9kJcWAxTpRi0SkO-97" value="a_id" style="ellipse;whiteSpace=wrap;html=1;align=center;" vertex="1" parent="1">
          <mxGeometry x="-373.5" y="-260" width="60" height="40" as="geometry" />
        </mxCell>
        <mxCell id="O7FBZ9kJcWAxTpRi0SkO-98" value="a_description" style="ellipse;whiteSpace=wrap;html=1;align=center;" vertex="1" parent="1">
          <mxGeometry x="-230" y="-260" width="80" height="40" as="geometry" />
        </mxCell>
        <mxCell id="O7FBZ9kJcWAxTpRi0SkO-99" value="a_name" style="ellipse;whiteSpace=wrap;html=1;align=center;" vertex="1" parent="1">
          <mxGeometry x="-306.5" y="-260" width="66.5" height="40" as="geometry" />
        </mxCell>
        <mxCell id="O7FBZ9kJcWAxTpRi0SkO-101" value="" style="endArrow=none;html=1;rounded=0;exitX=0.5;exitY=1;exitDx=0;exitDy=0;entryX=0.25;entryY=0;entryDx=0;entryDy=0;" edge="1" parent="1" source="O7FBZ9kJcWAxTpRi0SkO-97" target="O7FBZ9kJcWAxTpRi0SkO-85">
          <mxGeometry relative="1" as="geometry">
            <mxPoint x="-350" y="-150" as="sourcePoint" />
            <mxPoint x="-190" y="-150" as="targetPoint" />
          </mxGeometry>
        </mxCell>
        <mxCell id="O7FBZ9kJcWAxTpRi0SkO-102" value="" style="endArrow=none;html=1;rounded=0;exitX=0.5;exitY=1;exitDx=0;exitDy=0;entryX=0.5;entryY=0;entryDx=0;entryDy=0;" edge="1" parent="1" source="O7FBZ9kJcWAxTpRi0SkO-99" target="O7FBZ9kJcWAxTpRi0SkO-85">
          <mxGeometry relative="1" as="geometry">
            <mxPoint x="-350" y="-60" as="sourcePoint" />
            <mxPoint x="-190" y="-60" as="targetPoint" />
          </mxGeometry>
        </mxCell>
        <mxCell id="O7FBZ9kJcWAxTpRi0SkO-103" value="" style="endArrow=none;html=1;rounded=0;exitX=0.5;exitY=1;exitDx=0;exitDy=0;entryX=0.75;entryY=0;entryDx=0;entryDy=0;" edge="1" parent="1" source="O7FBZ9kJcWAxTpRi0SkO-98" target="O7FBZ9kJcWAxTpRi0SkO-85">
          <mxGeometry relative="1" as="geometry">
            <mxPoint x="-350" y="-60" as="sourcePoint" />
            <mxPoint x="-190" y="-60" as="targetPoint" />
          </mxGeometry>
        </mxCell>
        <mxCell id="O7FBZ9kJcWAxTpRi0SkO-106" value="mechanical&lt;div&gt;condition&lt;/div&gt;" style="ellipse;whiteSpace=wrap;html=1;align=center;" vertex="1" parent="1">
          <mxGeometry x="-98.5" y="510" width="90" height="30" as="geometry" />
        </mxCell>
        <mxCell id="O7FBZ9kJcWAxTpRi0SkO-107" value="" style="endArrow=none;html=1;rounded=0;exitX=1;exitY=0.5;exitDx=0;exitDy=0;entryX=0;entryY=0.5;entryDx=0;entryDy=0;" edge="1" parent="1" source="O7FBZ9kJcWAxTpRi0SkO-106" target="a6ZegHU4mjPMl57HPd2a-37">
          <mxGeometry relative="1" as="geometry">
            <mxPoint x="-280" y="350" as="sourcePoint" />
            <mxPoint x="-120" y="350" as="targetPoint" />
          </mxGeometry>
        </mxCell>
        <mxCell id="O7FBZ9kJcWAxTpRi0SkO-109" style="rounded=0;orthogonalLoop=1;jettySize=auto;html=1;exitX=1;exitY=0.5;exitDx=0;exitDy=0;entryX=0;entryY=1;entryDx=0;entryDy=0;endArrow=none;startFill=0;" edge="1" parent="1" source="O7FBZ9kJcWAxTpRi0SkO-108" target="a6ZegHU4mjPMl57HPd2a-37">
          <mxGeometry relative="1" as="geometry" />
        </mxCell>
        <mxCell id="O7FBZ9kJcWAxTpRi0SkO-108" value="body&lt;div&gt;condition&lt;/div&gt;" style="ellipse;whiteSpace=wrap;html=1;align=center;" vertex="1" parent="1">
          <mxGeometry x="-98.5" y="555" width="90" height="30" as="geometry" />
        </mxCell>
        <mxCell id="O7FBZ9kJcWAxTpRi0SkO-110" value="value" style="ellipse;whiteSpace=wrap;html=1;align=center;" vertex="1" parent="1">
          <mxGeometry x="-92.75" y="600" width="78.5" height="30" as="geometry" />
        </mxCell>
        <mxCell id="O7FBZ9kJcWAxTpRi0SkO-112" value="has" style="shape=rhombus;double=1;perimeter=rhombusPerimeter;whiteSpace=wrap;html=1;align=center;" vertex="1" parent="1">
          <mxGeometry x="-450" y="-40" width="120" height="60" as="geometry" />
        </mxCell>
        <mxCell id="O7FBZ9kJcWAxTpRi0SkO-113" value="payment" style="shape=ext;margin=3;double=1;whiteSpace=wrap;html=1;align=center;" vertex="1" parent="1">
          <mxGeometry x="-563" y="-125" width="100" height="40" as="geometry" />
        </mxCell>
        <mxCell id="O7FBZ9kJcWAxTpRi0SkO-114" value="" style="endArrow=none;html=1;rounded=0;exitX=1;exitY=0.5;exitDx=0;exitDy=0;entryX=0.25;entryY=0;entryDx=0;entryDy=0;" edge="1" parent="1" source="O7FBZ9kJcWAxTpRi0SkO-112" target="O7FBZ9kJcWAxTpRi0SkO-38">
          <mxGeometry relative="1" as="geometry">
            <mxPoint x="-280" y="-30" as="sourcePoint" />
            <mxPoint x="-120" y="-30" as="targetPoint" />
          </mxGeometry>
        </mxCell>
        <mxCell id="O7FBZ9kJcWAxTpRi0SkO-115" value="" style="endArrow=none;html=1;rounded=0;exitX=0.5;exitY=1;exitDx=0;exitDy=0;entryX=0;entryY=0.5;entryDx=0;entryDy=0;" edge="1" parent="1" source="O7FBZ9kJcWAxTpRi0SkO-113" target="O7FBZ9kJcWAxTpRi0SkO-112">
          <mxGeometry relative="1" as="geometry">
            <mxPoint x="-280" y="-30" as="sourcePoint" />
            <mxPoint x="-120" y="-30" as="targetPoint" />
          </mxGeometry>
        </mxCell>
        <mxCell id="O7FBZ9kJcWAxTpRi0SkO-116" value="pay_id" style="ellipse;whiteSpace=wrap;html=1;align=center;" vertex="1" parent="1">
          <mxGeometry x="-680" y="-200" width="100" height="40" as="geometry" />
        </mxCell>
        <mxCell id="O7FBZ9kJcWAxTpRi0SkO-117" value="" style="endArrow=none;html=1;rounded=0;exitX=0.5;exitY=1;exitDx=0;exitDy=0;entryX=0;entryY=0;entryDx=0;entryDy=0;" edge="1" parent="1" source="O7FBZ9kJcWAxTpRi0SkO-116" target="O7FBZ9kJcWAxTpRi0SkO-113">
          <mxGeometry relative="1" as="geometry">
            <mxPoint x="-280" y="-30" as="sourcePoint" />
            <mxPoint x="-120" y="-30" as="targetPoint" />
          </mxGeometry>
        </mxCell>
        <mxCell id="O7FBZ9kJcWAxTpRi0SkO-119" value="&lt;span class=&quot;notion-enable-hover&quot; data-token-index=&quot;0&quot; style=&quot;fill: rgb(120, 119, 116); isolation: auto;&quot;&gt;&lt;font style=&quot;color: rgb(0, 0, 0);&quot;&gt;payment options&lt;/font&gt;&lt;/span&gt;" style="ellipse;whiteSpace=wrap;html=1;align=center;" vertex="1" parent="1">
          <mxGeometry x="-570" y="-200" width="100" height="40" as="geometry" />
        </mxCell>
        <mxCell id="O7FBZ9kJcWAxTpRi0SkO-121" value="" style="endArrow=none;html=1;rounded=0;exitX=0.5;exitY=1;exitDx=0;exitDy=0;entryX=0.5;entryY=0;entryDx=0;entryDy=0;" edge="1" parent="1" source="O7FBZ9kJcWAxTpRi0SkO-119" target="O7FBZ9kJcWAxTpRi0SkO-113">
          <mxGeometry relative="1" as="geometry">
            <mxPoint x="-280" y="-30" as="sourcePoint" />
            <mxPoint x="-120" y="-30" as="targetPoint" />
          </mxGeometry>
        </mxCell>
        <mxCell id="O7FBZ9kJcWAxTpRi0SkO-122" value="condition" style="ellipse;whiteSpace=wrap;html=1;align=center;" vertex="1" parent="1">
          <mxGeometry x="-461.5" y="170" width="77" height="30" as="geometry" />
        </mxCell>
        <mxCell id="O7FBZ9kJcWAxTpRi0SkO-123" value="" style="endArrow=none;html=1;rounded=0;entryX=0.121;entryY=0.942;entryDx=0;entryDy=0;entryPerimeter=0;exitX=0.5;exitY=0;exitDx=0;exitDy=0;" edge="1" parent="1" source="O7FBZ9kJcWAxTpRi0SkO-122" target="O7FBZ9kJcWAxTpRi0SkO-38">
          <mxGeometry relative="1" as="geometry">
            <mxPoint x="-160" as="sourcePoint" />
            <mxPoint as="targetPoint" />
          </mxGeometry>
        </mxCell>
        <mxCell id="O7FBZ9kJcWAxTpRi0SkO-136" style="rounded=0;orthogonalLoop=1;jettySize=auto;html=1;exitX=0;exitY=1;exitDx=0;exitDy=0;entryX=1;entryY=0.5;entryDx=0;entryDy=0;endArrow=none;startFill=0;" edge="1" parent="1" source="O7FBZ9kJcWAxTpRi0SkO-124" target="O7FBZ9kJcWAxTpRi0SkO-135">
          <mxGeometry relative="1" as="geometry" />
        </mxCell>
        <mxCell id="O7FBZ9kJcWAxTpRi0SkO-124" value="bank_financing" style="whiteSpace=wrap;html=1;align=center;" vertex="1" parent="1">
          <mxGeometry x="-1110" y="-125" width="100" height="40" as="geometry" />
        </mxCell>
        <mxCell id="O7FBZ9kJcWAxTpRi0SkO-131" style="rounded=0;orthogonalLoop=1;jettySize=auto;html=1;exitX=1;exitY=1;exitDx=0;exitDy=0;entryX=0;entryY=0;entryDx=0;entryDy=0;endArrow=none;startFill=0;" edge="1" parent="1" source="O7FBZ9kJcWAxTpRi0SkO-126" target="O7FBZ9kJcWAxTpRi0SkO-124">
          <mxGeometry relative="1" as="geometry" />
        </mxCell>
        <mxCell id="O7FBZ9kJcWAxTpRi0SkO-126" value="bank_unikey" style="ellipse;whiteSpace=wrap;html=1;align=center;" vertex="1" parent="1">
          <mxGeometry x="-1280" y="-180" width="100" height="30" as="geometry" />
        </mxCell>
        <mxCell id="O7FBZ9kJcWAxTpRi0SkO-130" style="rounded=0;orthogonalLoop=1;jettySize=auto;html=1;exitX=1;exitY=0.5;exitDx=0;exitDy=0;endArrow=none;startFill=0;entryX=0;entryY=0;entryDx=0;entryDy=0;" edge="1" parent="1" source="O7FBZ9kJcWAxTpRi0SkO-127" target="O7FBZ9kJcWAxTpRi0SkO-124">
          <mxGeometry relative="1" as="geometry" />
        </mxCell>
        <mxCell id="O7FBZ9kJcWAxTpRi0SkO-127" value="loan_term" style="ellipse;whiteSpace=wrap;html=1;align=center;" vertex="1" parent="1">
          <mxGeometry x="-1280" y="-210" width="100" height="30" as="geometry" />
        </mxCell>
        <mxCell id="O7FBZ9kJcWAxTpRi0SkO-132" style="rounded=0;orthogonalLoop=1;jettySize=auto;html=1;exitX=1;exitY=0.5;exitDx=0;exitDy=0;entryX=0;entryY=0.5;entryDx=0;entryDy=0;endArrow=none;startFill=0;" edge="1" parent="1" source="O7FBZ9kJcWAxTpRi0SkO-128" target="O7FBZ9kJcWAxTpRi0SkO-124">
          <mxGeometry relative="1" as="geometry" />
        </mxCell>
        <mxCell id="O7FBZ9kJcWAxTpRi0SkO-128" value="interest_range" style="ellipse;whiteSpace=wrap;html=1;align=center;" vertex="1" parent="1">
          <mxGeometry x="-1280" y="-150" width="100" height="30" as="geometry" />
        </mxCell>
        <mxCell id="O7FBZ9kJcWAxTpRi0SkO-133" style="rounded=0;orthogonalLoop=1;jettySize=auto;html=1;exitX=1;exitY=0.5;exitDx=0;exitDy=0;entryX=0;entryY=0.75;entryDx=0;entryDy=0;endArrow=none;startFill=0;" edge="1" parent="1" source="O7FBZ9kJcWAxTpRi0SkO-129" target="O7FBZ9kJcWAxTpRi0SkO-124">
          <mxGeometry relative="1" as="geometry" />
        </mxCell>
        <mxCell id="O7FBZ9kJcWAxTpRi0SkO-129" value="loan amount" style="ellipse;whiteSpace=wrap;html=1;align=center;" vertex="1" parent="1">
          <mxGeometry x="-1280" y="-120" width="100" height="30" as="geometry" />
        </mxCell>
        <mxCell id="O7FBZ9kJcWAxTpRi0SkO-134" value="include" style="shape=rhombus;perimeter=rhombusPerimeter;whiteSpace=wrap;html=1;align=center;" vertex="1" parent="1">
          <mxGeometry x="-850" y="-135" width="120" height="60" as="geometry" />
        </mxCell>
        <mxCell id="O7FBZ9kJcWAxTpRi0SkO-135" value="pay_id" style="ellipse;whiteSpace=wrap;html=1;align=center;" vertex="1" parent="1">
          <mxGeometry x="-1280" y="-90" width="100" height="30" as="geometry" />
        </mxCell>
        <mxCell id="O7FBZ9kJcWAxTpRi0SkO-137" value="" style="endArrow=none;html=1;rounded=0;exitX=1;exitY=0.5;exitDx=0;exitDy=0;entryX=0;entryY=0.5;entryDx=0;entryDy=0;" edge="1" parent="1" source="O7FBZ9kJcWAxTpRi0SkO-124" target="O7FBZ9kJcWAxTpRi0SkO-134">
          <mxGeometry relative="1" as="geometry">
            <mxPoint x="-800" y="-70" as="sourcePoint" />
            <mxPoint x="-640" y="-70" as="targetPoint" />
          </mxGeometry>
        </mxCell>
        <mxCell id="O7FBZ9kJcWAxTpRi0SkO-138" value="" style="endArrow=none;html=1;rounded=0;exitX=1;exitY=0.5;exitDx=0;exitDy=0;entryX=0;entryY=0.5;entryDx=0;entryDy=0;" edge="1" parent="1" source="O7FBZ9kJcWAxTpRi0SkO-134" target="O7FBZ9kJcWAxTpRi0SkO-113">
          <mxGeometry relative="1" as="geometry">
            <mxPoint x="-800" y="-70" as="sourcePoint" />
            <mxPoint x="-640" y="-70" as="targetPoint" />
          </mxGeometry>
        </mxCell>
        <mxCell id="O7FBZ9kJcWAxTpRi0SkO-139" value="proof&lt;div&gt;document&lt;/div&gt;" style="ellipse;whiteSpace=wrap;html=1;align=center;" vertex="1" parent="1">
          <mxGeometry x="-1270" y="-60" width="80" height="40" as="geometry" />
        </mxCell>
        <mxCell id="O7FBZ9kJcWAxTpRi0SkO-140" value="" style="endArrow=none;html=1;rounded=0;exitX=0;exitY=1;exitDx=0;exitDy=0;entryX=1;entryY=0.5;entryDx=0;entryDy=0;" edge="1" parent="1" source="O7FBZ9kJcWAxTpRi0SkO-124" target="O7FBZ9kJcWAxTpRi0SkO-139">
          <mxGeometry relative="1" as="geometry">
            <mxPoint x="-900" y="-130" as="sourcePoint" />
            <mxPoint x="-740" y="-130" as="targetPoint" />
          </mxGeometry>
        </mxCell>
        <mxCell id="O7FBZ9kJcWAxTpRi0SkO-141" value="pay_amount" style="ellipse;whiteSpace=wrap;html=1;align=center;" vertex="1" parent="1">
          <mxGeometry x="-470" y="-200" width="100" height="40" as="geometry" />
        </mxCell>
        <mxCell id="O7FBZ9kJcWAxTpRi0SkO-142" value="" style="endArrow=none;html=1;rounded=0;entryX=0.5;entryY=1;entryDx=0;entryDy=0;exitX=1;exitY=0;exitDx=0;exitDy=0;" edge="1" parent="1" source="O7FBZ9kJcWAxTpRi0SkO-113" target="O7FBZ9kJcWAxTpRi0SkO-141">
          <mxGeometry relative="1" as="geometry">
            <mxPoint x="-670" y="-150" as="sourcePoint" />
            <mxPoint x="-510" y="-150" as="targetPoint" />
          </mxGeometry>
        </mxCell>
      </root>
    </mxGraphModel>
  </diagram>
</mxfile>
